<svg xmlns="http://www.w3.org/2000/svg" xmlns:xlink="http://www.w3.org/1999/xlink" width="1024" zoomAndPan="magnify" viewBox="0 0 768 767.999994" height="1024" preserveAspectRatio="xMidYMid meet" version="1.0"><defs><g/><clipPath id="6a6b3e05c8"><path d="M 14.964844 0 L 764.394531 0 L 764.394531 765 L 14.964844 765 Z M 14.964844 0 " clip-rule="nonzero"/></clipPath><clipPath id="97c414d263"><path d="M 389.679688 0 C 182.730469 0 14.964844 171.238281 14.964844 382.472656 C 14.964844 593.707031 182.730469 764.945312 389.679688 764.945312 C 596.628906 764.945312 764.394531 593.707031 764.394531 382.472656 C 764.394531 171.238281 596.628906 0 389.679688 0 Z M 389.679688 0 " clip-rule="nonzero"/></clipPath><clipPath id="cfec968290"><path d="M 0.964844 0 L 750.394531 0 L 750.394531 765 L 0.964844 765 Z M 0.964844 0 " clip-rule="nonzero"/></clipPath><clipPath id="e169f220c0"><path d="M 375.679688 0 C 168.730469 0 0.964844 171.238281 0.964844 382.472656 C 0.964844 593.707031 168.730469 764.945312 375.679688 764.945312 C 582.628906 764.945312 750.394531 593.707031 750.394531 382.472656 C 750.394531 171.238281 582.628906 0 375.679688 0 Z M 375.679688 0 " clip-rule="nonzero"/></clipPath><clipPath id="a30dc48d97"><rect x="0" width="751" y="0" height="765"/></clipPath><clipPath id="d9ac61a798"><rect x="0" width="271" y="0" height="485"/></clipPath></defs><g clip-path="url(#6a6b3e05c8)"><g clip-path="url(#97c414d263)"><g transform="matrix(1, 0, 0, 1, 14, -0.000000000000057351)"><g clip-path="url(#a30dc48d97)"><g clip-path="url(#cfec968290)"><g clip-path="url(#e169f220c0)"><path fill="#3067cf" d="M 0.964844 0 L 750.394531 0 L 750.394531 764.070312 L 0.964844 764.070312 Z M 0.964844 0 " fill-opacity="1" fill-rule="nonzero"/></g></g></g></g></g></g><g fill="#ffffff" fill-opacity="1"><g transform="translate(142.006738, 547.242591)"><g><path d="M 114.296875 0 L 61.921875 0 L 61.921875 -450.4375 L 313.03125 -450.4375 L 313.03125 -403.921875 L 114.296875 -403.921875 L 114.296875 -239.078125 L 301.015625 -239.078125 L 301.015625 -192.5625 L 114.296875 -192.5625 Z M 114.296875 0 "/></g></g></g><g transform="matrix(1, 0, 0, 1, 374, 274)"><g clip-path="url(#d9ac61a798)"><g fill="#cf9830" fill-opacity="1"><g transform="translate(0.740388, 380.041993)"><g><path d="M 82.578125 -2.09375 C 82.578125 9.726562 85.96875 18.304688 92.75 23.640625 C 99.53125 28.972656 109.46875 31.753906 122.5625 31.984375 L 122.5625 56.328125 C 100.539062 56.097656 83.503906 51.054688 71.453125 41.203125 C 59.398438 31.347656 53.375 17.5 53.375 -0.34375 L 53.375 -53.03125 C 53.375 -65.082031 49.722656 -73.6875 42.421875 -78.84375 C 35.117188 -84 24.515625 -86.578125 10.609375 -86.578125 L 10.609375 -111.09375 C 25.671875 -111.320312 36.5625 -114.101562 43.28125 -119.4375 C 50.007812 -124.769531 53.375 -133 53.375 -144.125 L 53.375 -197.328125 C 53.375 -215.285156 59.628906 -229.25 72.140625 -239.21875 C 84.660156 -249.1875 101.46875 -254.171875 122.5625 -254.171875 L 122.5625 -230 C 95.90625 -229.3125 82.578125 -217.78125 82.578125 -195.40625 L 82.578125 -144.125 C 82.578125 -119.207031 69.65625 -104.488281 43.8125 -99.96875 L 43.8125 -97.875 C 69.65625 -93.351562 82.578125 -78.632812 82.578125 -53.71875 Z M 82.578125 -2.09375 "/></g></g><g transform="translate(135.647395, 380.041993)"><g><path d="M 90.75 -99.96875 C 64.90625 -104.488281 51.984375 -119.207031 51.984375 -144.125 L 51.984375 -195.40625 C 51.984375 -217.78125 38.828125 -229.3125 12.515625 -230 L 12.515625 -254.171875 C 33.835938 -254.171875 50.613281 -249.128906 62.84375 -239.046875 C 75.070312 -228.960938 81.1875 -215.054688 81.1875 -197.328125 L 81.1875 -144.125 C 81.1875 -132.882812 84.601562 -124.625 91.4375 -119.34375 C 98.28125 -114.070312 109.234375 -111.320312 124.296875 -111.09375 L 124.296875 -86.578125 C 110.160156 -86.578125 99.441406 -84 92.140625 -78.84375 C 84.835938 -73.6875 81.1875 -65.082031 81.1875 -53.03125 L 81.1875 -0.34375 C 81.1875 17.382812 75.242188 31.203125 63.359375 41.109375 C 51.484375 51.023438 34.535156 56.097656 12.515625 56.328125 L 12.515625 31.984375 C 25.378906 31.753906 35.171875 28.972656 41.890625 23.640625 C 48.617188 18.304688 51.984375 9.726562 51.984375 -2.09375 L 51.984375 -53.71875 C 51.984375 -66.925781 55.171875 -77.007812 61.546875 -83.96875 C 67.921875 -90.925781 77.65625 -95.5625 90.75 -97.875 Z M 90.75 -99.96875 "/></g></g></g></g></g></svg>