<svg xmlns="http://www.w3.org/2000/svg" xmlns:xlink="http://www.w3.org/1999/xlink" width="1600" zoomAndPan="magnify" viewBox="0 0 1200 239.999995" height="320" preserveAspectRatio="xMidYMid meet" version="1.0"><defs><g/></defs><g fill="#3067cf" fill-opacity="1"><g transform="translate(119.921615, 132.565187)"><g><path d="M 44.34375 -23.640625 C 44.34375 -16.003906 42.164062 -10.15625 37.8125 -6.09375 C 33.46875 -2.03125 27.191406 0 18.984375 0 L 5.84375 0 L 5.84375 -46.40625 L 20.40625 -46.40625 C 27.976562 -46.40625 33.859375 -44.40625 38.046875 -40.40625 C 42.242188 -36.40625 44.34375 -30.816406 44.34375 -23.640625 Z M 34.125 -23.390625 C 34.125 -33.359375 29.722656 -38.34375 20.921875 -38.34375 L 15.671875 -38.34375 L 15.671875 -8.125 L 19.90625 -8.125 C 29.382812 -8.125 34.125 -13.210938 34.125 -23.390625 Z M 34.125 -23.390625 "/></g></g></g><g fill="#3067cf" fill-opacity="1"><g transform="translate(168.031063, 132.565187)"><g><path d="M 4.671875 -44.65625 C 4.671875 -47.8125 6.425781 -49.390625 9.9375 -49.390625 C 13.445312 -49.390625 15.203125 -47.8125 15.203125 -44.65625 C 15.203125 -43.15625 14.757812 -41.984375 13.875 -41.140625 C 13 -40.304688 11.6875 -39.890625 9.9375 -39.890625 C 6.425781 -39.890625 4.671875 -41.476562 4.671875 -44.65625 Z M 14.765625 0 L 5.078125 0 L 5.078125 -35.484375 L 14.765625 -35.484375 Z M 14.765625 0 "/></g></g></g><g fill="#3067cf" fill-opacity="1"><g transform="translate(187.865104, 132.565187)"><g><path d="M 29.828125 -10.53125 C 29.828125 -6.894531 28.5625 -4.125 26.03125 -2.21875 C 23.507812 -0.3125 19.726562 0.640625 14.6875 0.640625 C 12.113281 0.640625 9.914062 0.460938 8.09375 0.109375 C 6.269531 -0.234375 4.566406 -0.742188 2.984375 -1.421875 L 2.984375 -9.421875 C 4.785156 -8.578125 6.8125 -7.867188 9.0625 -7.296875 C 11.3125 -6.722656 13.296875 -6.4375 15.015625 -6.4375 C 18.523438 -6.4375 20.28125 -7.453125 20.28125 -9.484375 C 20.28125 -10.242188 20.046875 -10.863281 19.578125 -11.34375 C 19.117188 -11.820312 18.316406 -12.363281 17.171875 -12.96875 C 16.023438 -13.570312 14.5 -14.273438 12.59375 -15.078125 C 9.863281 -16.222656 7.859375 -17.28125 6.578125 -18.25 C 5.304688 -19.21875 4.378906 -20.332031 3.796875 -21.59375 C 3.210938 -22.851562 2.921875 -24.40625 2.921875 -26.25 C 2.921875 -29.40625 4.140625 -31.84375 6.578125 -33.5625 C 9.023438 -35.289062 12.492188 -36.15625 16.984375 -36.15625 C 21.253906 -36.15625 25.410156 -35.222656 29.453125 -33.359375 L 26.53125 -26.375 C 24.757812 -27.132812 23.097656 -27.757812 21.546875 -28.25 C 20.003906 -28.738281 18.429688 -28.984375 16.828125 -28.984375 C 13.960938 -28.984375 12.53125 -28.207031 12.53125 -26.65625 C 12.53125 -25.789062 12.988281 -25.039062 13.90625 -24.40625 C 14.832031 -23.769531 16.851562 -22.828125 19.96875 -21.578125 C 22.738281 -20.460938 24.769531 -19.414062 26.0625 -18.4375 C 27.351562 -17.46875 28.300781 -16.347656 28.90625 -15.078125 C 29.519531 -13.804688 29.828125 -12.289062 29.828125 -10.53125 Z M 29.828125 -10.53125 "/></g></g></g><g fill="#3067cf" fill-opacity="1"><g transform="translate(220.170789, 132.565187)"><g><path d="M 19.765625 -29.265625 C 17.710938 -29.265625 16.101562 -28.613281 14.9375 -27.3125 C 13.78125 -26.007812 13.117188 -24.160156 12.953125 -21.765625 L 26.53125 -21.765625 C 26.488281 -24.160156 25.863281 -26.007812 24.65625 -27.3125 C 23.457031 -28.613281 21.828125 -29.265625 19.765625 -29.265625 Z M 21.140625 0.640625 C 15.421875 0.640625 10.953125 -0.9375 7.734375 -4.09375 C 4.523438 -7.25 2.921875 -11.710938 2.921875 -17.484375 C 2.921875 -23.429688 4.40625 -28.03125 7.375 -31.28125 C 10.351562 -34.53125 14.460938 -36.15625 19.703125 -36.15625 C 24.722656 -36.15625 28.628906 -34.722656 31.421875 -31.859375 C 34.210938 -29.003906 35.609375 -25.0625 35.609375 -20.03125 L 35.609375 -15.328125 L 12.734375 -15.328125 C 12.835938 -12.578125 13.648438 -10.425781 15.171875 -8.875 C 16.691406 -7.332031 18.828125 -6.5625 21.578125 -6.5625 C 23.710938 -6.5625 25.734375 -6.785156 27.640625 -7.234375 C 29.546875 -7.679688 31.535156 -8.390625 33.609375 -9.359375 L 33.609375 -1.875 C 31.921875 -1.03125 30.113281 -0.398438 28.1875 0.015625 C 26.257812 0.429688 23.910156 0.640625 21.140625 0.640625 Z M 21.140625 0.640625 "/></g></g></g><g fill="#3067cf" fill-opacity="1"><g transform="translate(258.569491, 132.565187)"><g><path d="M 37.828125 0 L 28.15625 0 L 28.15625 -20.71875 C 28.15625 -23.28125 27.695312 -25.203125 26.78125 -26.484375 C 25.875 -27.765625 24.425781 -28.40625 22.4375 -28.40625 C 19.726562 -28.40625 17.769531 -27.5 16.5625 -25.6875 C 15.363281 -23.882812 14.765625 -20.882812 14.765625 -16.6875 L 14.765625 0 L 5.078125 0 L 5.078125 -35.484375 L 12.46875 -35.484375 L 13.78125 -30.9375 L 14.3125 -30.9375 C 15.394531 -32.65625 16.878906 -33.953125 18.765625 -34.828125 C 20.660156 -35.710938 22.816406 -36.15625 25.234375 -36.15625 C 29.359375 -36.15625 32.488281 -35.035156 34.625 -32.796875 C 36.757812 -30.566406 37.828125 -27.347656 37.828125 -23.140625 Z M 16.125 -42.71875 C 15.46875 -42.71875 14.835938 -42.4375 14.234375 -41.875 C 13.640625 -41.3125 13.203125 -40.460938 12.921875 -39.328125 L 8.1875 -39.328125 C 8.425781 -42.390625 9.300781 -44.785156 10.8125 -46.515625 C 12.320312 -48.253906 14.328125 -49.125 16.828125 -49.125 C 17.691406 -49.125 18.539062 -48.945312 19.375 -48.59375 C 20.21875 -48.25 21.046875 -47.867188 21.859375 -47.453125 C 22.671875 -47.046875 23.46875 -46.671875 24.25 -46.328125 C 25.03125 -45.992188 25.804688 -45.828125 26.578125 -45.828125 C 27.234375 -45.828125 27.859375 -46.101562 28.453125 -46.65625 C 29.054688 -47.207031 29.5 -48.050781 29.78125 -49.1875 L 34.5 -49.1875 C 34.269531 -46.125 33.390625 -43.722656 31.859375 -41.984375 C 30.328125 -40.253906 28.332031 -39.390625 25.875 -39.390625 C 25.007812 -39.390625 24.15625 -39.5625 23.3125 -39.90625 C 22.476562 -40.257812 21.65625 -40.640625 20.84375 -41.046875 C 20.03125 -41.460938 19.226562 -41.84375 18.4375 -42.1875 C 17.65625 -42.539062 16.882812 -42.71875 16.125 -42.71875 Z M 16.125 -42.71875 "/></g></g></g><g fill="#3067cf" fill-opacity="1"><g transform="translate(301.28408, 132.565187)"><g><path d="M 12.796875 -17.8125 C 12.796875 -14.289062 13.367188 -11.628906 14.515625 -9.828125 C 15.671875 -8.035156 17.550781 -7.140625 20.15625 -7.140625 C 22.738281 -7.140625 24.59375 -8.03125 25.71875 -9.8125 C 26.851562 -11.601562 27.421875 -14.269531 27.421875 -17.8125 C 27.421875 -21.320312 26.847656 -23.953125 25.703125 -25.703125 C 24.566406 -27.460938 22.695312 -28.34375 20.09375 -28.34375 C 17.507812 -28.34375 15.644531 -27.46875 14.5 -25.71875 C 13.363281 -23.976562 12.796875 -21.34375 12.796875 -17.8125 Z M 37.328125 -17.8125 C 37.328125 -12.03125 35.800781 -7.507812 32.75 -4.25 C 29.707031 -0.988281 25.46875 0.640625 20.03125 0.640625 C 16.625 0.640625 13.617188 -0.101562 11.015625 -1.59375 C 8.410156 -3.09375 6.410156 -5.238281 5.015625 -8.03125 C 3.617188 -10.820312 2.921875 -14.082031 2.921875 -17.8125 C 2.921875 -23.601562 4.429688 -28.109375 7.453125 -31.328125 C 10.484375 -34.546875 14.738281 -36.15625 20.21875 -36.15625 C 23.625 -36.15625 26.628906 -35.410156 29.234375 -33.921875 C 31.835938 -32.441406 33.835938 -30.316406 35.234375 -27.546875 C 36.628906 -24.773438 37.328125 -21.53125 37.328125 -17.8125 Z M 37.328125 -17.8125 "/></g></g></g><g fill="#3067cf" fill-opacity="1"><g transform="translate(341.523392, 132.565187)"><g/></g></g><g fill="#3067cf" fill-opacity="1"><g transform="translate(358.406127, 132.565187)"><g><path d="M 19.484375 0.640625 C 8.441406 0.640625 2.921875 -5.421875 2.921875 -17.546875 C 2.921875 -23.578125 4.421875 -28.1875 7.421875 -31.375 C 10.429688 -34.5625 14.738281 -36.15625 20.34375 -36.15625 C 24.445312 -36.15625 28.128906 -35.347656 31.390625 -33.734375 L 28.53125 -26.25 C 27.007812 -26.863281 25.59375 -27.363281 24.28125 -27.75 C 22.96875 -28.144531 21.65625 -28.34375 20.34375 -28.34375 C 15.3125 -28.34375 12.796875 -24.765625 12.796875 -17.609375 C 12.796875 -10.671875 15.3125 -7.203125 20.34375 -7.203125 C 22.207031 -7.203125 23.929688 -7.453125 25.515625 -7.953125 C 27.097656 -8.453125 28.6875 -9.226562 30.28125 -10.28125 L 30.28125 -2 C 28.71875 -1.007812 27.132812 -0.320312 25.53125 0.0625 C 23.9375 0.445312 21.921875 0.640625 19.484375 0.640625 Z M 19.484375 0.640625 "/></g></g></g><g fill="#3067cf" fill-opacity="1"><g transform="translate(391.822507, 132.565187)"><g><path d="M 19.765625 -29.265625 C 17.710938 -29.265625 16.101562 -28.613281 14.9375 -27.3125 C 13.78125 -26.007812 13.117188 -24.160156 12.953125 -21.765625 L 26.53125 -21.765625 C 26.488281 -24.160156 25.863281 -26.007812 24.65625 -27.3125 C 23.457031 -28.613281 21.828125 -29.265625 19.765625 -29.265625 Z M 21.140625 0.640625 C 15.421875 0.640625 10.953125 -0.9375 7.734375 -4.09375 C 4.523438 -7.25 2.921875 -11.710938 2.921875 -17.484375 C 2.921875 -23.429688 4.40625 -28.03125 7.375 -31.28125 C 10.351562 -34.53125 14.460938 -36.15625 19.703125 -36.15625 C 24.722656 -36.15625 28.628906 -34.722656 31.421875 -31.859375 C 34.210938 -29.003906 35.609375 -25.0625 35.609375 -20.03125 L 35.609375 -15.328125 L 12.734375 -15.328125 C 12.835938 -12.578125 13.648438 -10.425781 15.171875 -8.875 C 16.691406 -7.332031 18.828125 -6.5625 21.578125 -6.5625 C 23.710938 -6.5625 25.734375 -6.785156 27.640625 -7.234375 C 29.546875 -7.679688 31.535156 -8.390625 33.609375 -9.359375 L 33.609375 -1.875 C 31.921875 -1.03125 30.113281 -0.398438 28.1875 0.015625 C 26.257812 0.429688 23.910156 0.640625 21.140625 0.640625 Z M 21.140625 0.640625 "/></g></g></g><g fill="#3067cf" fill-opacity="1"><g transform="translate(430.22121, 132.565187)"><g><path d="M 37.828125 0 L 28.15625 0 L 28.15625 -20.71875 C 28.15625 -23.28125 27.695312 -25.203125 26.78125 -26.484375 C 25.875 -27.765625 24.425781 -28.40625 22.4375 -28.40625 C 19.726562 -28.40625 17.769531 -27.5 16.5625 -25.6875 C 15.363281 -23.882812 14.765625 -20.882812 14.765625 -16.6875 L 14.765625 0 L 5.078125 0 L 5.078125 -35.484375 L 12.46875 -35.484375 L 13.78125 -30.9375 L 14.3125 -30.9375 C 15.394531 -32.65625 16.878906 -33.953125 18.765625 -34.828125 C 20.660156 -35.710938 22.816406 -36.15625 25.234375 -36.15625 C 29.359375 -36.15625 32.488281 -35.035156 34.625 -32.796875 C 36.757812 -30.566406 37.828125 -27.347656 37.828125 -23.140625 Z M 37.828125 0 "/></g></g></g><g fill="#3067cf" fill-opacity="1"><g transform="translate(472.935799, 132.565187)"><g><path d="M 20.03125 -7.078125 C 21.71875 -7.078125 23.75 -7.445312 26.125 -8.1875 L 26.125 -0.984375 C 23.707031 0.0976562 20.742188 0.640625 17.234375 0.640625 C 13.359375 0.640625 10.535156 -0.335938 8.765625 -2.296875 C 7.003906 -4.253906 6.125 -7.191406 6.125 -11.109375 L 6.125 -28.21875 L 1.484375 -28.21875 L 1.484375 -32.3125 L 6.828125 -35.546875 L 9.609375 -43.03125 L 15.8125 -43.03125 L 15.8125 -35.484375 L 25.734375 -35.484375 L 25.734375 -28.21875 L 15.8125 -28.21875 L 15.8125 -11.109375 C 15.8125 -9.734375 16.195312 -8.71875 16.96875 -8.0625 C 17.738281 -7.40625 18.757812 -7.078125 20.03125 -7.078125 Z M 20.03125 -7.078125 "/></g></g></g><g fill="#3067cf" fill-opacity="1"><g transform="translate(501.147726, 132.565187)"><g><path d="M 24.890625 -36.15625 C 26.191406 -36.15625 27.28125 -36.054688 28.15625 -35.859375 L 27.421875 -26.78125 C 26.640625 -27 25.6875 -27.109375 24.5625 -27.109375 C 21.476562 -27.109375 19.070312 -26.3125 17.34375 -24.71875 C 15.625 -23.132812 14.765625 -20.914062 14.765625 -18.0625 L 14.765625 0 L 5.078125 0 L 5.078125 -35.484375 L 12.40625 -35.484375 L 13.84375 -29.515625 L 14.3125 -29.515625 C 15.414062 -31.503906 16.898438 -33.109375 18.765625 -34.328125 C 20.640625 -35.546875 22.679688 -36.15625 24.890625 -36.15625 Z M 24.890625 -36.15625 "/></g></g></g><g fill="#3067cf" fill-opacity="1"><g transform="translate(530.660801, 132.565187)"><g><path d="M 27.609375 0 L 25.734375 -4.828125 L 25.484375 -4.828125 C 23.859375 -2.773438 22.179688 -1.347656 20.453125 -0.546875 C 18.734375 0.242188 16.488281 0.640625 13.71875 0.640625 C 10.300781 0.640625 7.613281 -0.332031 5.65625 -2.28125 C 3.707031 -4.226562 2.734375 -7 2.734375 -10.59375 C 2.734375 -14.363281 4.046875 -17.140625 6.671875 -18.921875 C 9.304688 -20.710938 13.28125 -21.707031 18.59375 -21.90625 L 24.75 -22.09375 L 24.75 -23.640625 C 24.75 -27.242188 22.910156 -29.046875 19.234375 -29.046875 C 16.398438 -29.046875 13.066406 -28.1875 9.234375 -26.46875 L 6.03125 -33.015625 C 10.113281 -35.148438 14.640625 -36.21875 19.609375 -36.21875 C 24.367188 -36.21875 28.019531 -35.179688 30.5625 -33.109375 C 33.101562 -31.035156 34.375 -27.878906 34.375 -23.640625 L 34.375 0 Z M 24.75 -16.4375 L 21.015625 -16.3125 C 18.203125 -16.226562 16.101562 -15.71875 14.71875 -14.78125 C 13.34375 -13.851562 12.65625 -12.4375 12.65625 -10.53125 C 12.65625 -7.800781 14.222656 -6.4375 17.359375 -6.4375 C 19.597656 -6.4375 21.390625 -7.082031 22.734375 -8.375 C 24.078125 -9.664062 24.75 -11.378906 24.75 -13.515625 Z M 24.75 -16.4375 "/></g></g></g><g fill="#3067cf" fill-opacity="1"><g transform="translate(569.916322, 132.565187)"><g><path d="M 16.3125 0.640625 C 12.144531 0.640625 8.867188 -0.976562 6.484375 -4.21875 C 4.109375 -7.457031 2.921875 -11.941406 2.921875 -17.671875 C 2.921875 -23.492188 4.128906 -28.03125 6.546875 -31.28125 C 8.972656 -34.53125 12.3125 -36.15625 16.5625 -36.15625 C 21.03125 -36.15625 24.4375 -34.414062 26.78125 -30.9375 L 27.109375 -30.9375 C 26.617188 -33.582031 26.375 -35.941406 26.375 -38.015625 L 26.375 -49.390625 L 36.09375 -49.390625 L 36.09375 0 L 28.65625 0 L 26.78125 -4.609375 L 26.375 -4.609375 C 24.175781 -1.109375 20.820312 0.640625 16.3125 0.640625 Z M 19.703125 -7.078125 C 22.179688 -7.078125 23.992188 -7.796875 25.140625 -9.234375 C 26.296875 -10.671875 26.929688 -13.113281 27.046875 -16.5625 L 27.046875 -17.609375 C 27.046875 -21.421875 26.457031 -24.148438 25.28125 -25.796875 C 24.101562 -27.453125 22.191406 -28.28125 19.546875 -28.28125 C 17.390625 -28.28125 15.710938 -27.363281 14.515625 -25.53125 C 13.328125 -23.695312 12.734375 -21.035156 12.734375 -17.546875 C 12.734375 -14.054688 13.332031 -11.4375 14.53125 -9.6875 C 15.738281 -7.945312 17.460938 -7.078125 19.703125 -7.078125 Z M 19.703125 -7.078125 "/></g></g></g><g fill="#3067cf" fill-opacity="1"><g transform="translate(611.044188, 132.565187)"><g><path d="M 12.796875 -17.8125 C 12.796875 -14.289062 13.367188 -11.628906 14.515625 -9.828125 C 15.671875 -8.035156 17.550781 -7.140625 20.15625 -7.140625 C 22.738281 -7.140625 24.59375 -8.03125 25.71875 -9.8125 C 26.851562 -11.601562 27.421875 -14.269531 27.421875 -17.8125 C 27.421875 -21.320312 26.847656 -23.953125 25.703125 -25.703125 C 24.566406 -27.460938 22.695312 -28.34375 20.09375 -28.34375 C 17.507812 -28.34375 15.644531 -27.46875 14.5 -25.71875 C 13.363281 -23.976562 12.796875 -21.34375 12.796875 -17.8125 Z M 37.328125 -17.8125 C 37.328125 -12.03125 35.800781 -7.507812 32.75 -4.25 C 29.707031 -0.988281 25.46875 0.640625 20.03125 0.640625 C 16.625 0.640625 13.617188 -0.101562 11.015625 -1.59375 C 8.410156 -3.09375 6.410156 -5.238281 5.015625 -8.03125 C 3.617188 -10.820312 2.921875 -14.082031 2.921875 -17.8125 C 2.921875 -23.601562 4.429688 -28.109375 7.453125 -31.328125 C 10.484375 -34.546875 14.738281 -36.15625 20.21875 -36.15625 C 23.625 -36.15625 26.628906 -35.410156 29.234375 -33.921875 C 31.835938 -32.441406 33.835938 -30.316406 35.234375 -27.546875 C 36.628906 -24.773438 37.328125 -21.53125 37.328125 -17.8125 Z M 37.328125 -17.8125 "/></g></g></g><g fill="#3067cf" fill-opacity="1"><g transform="translate(651.283489, 132.565187)"><g/></g></g><g fill="#3067cf" fill-opacity="1"><g transform="translate(668.166224, 132.565187)"><g><path d="M 19.765625 -29.265625 C 17.710938 -29.265625 16.101562 -28.613281 14.9375 -27.3125 C 13.78125 -26.007812 13.117188 -24.160156 12.953125 -21.765625 L 26.53125 -21.765625 C 26.488281 -24.160156 25.863281 -26.007812 24.65625 -27.3125 C 23.457031 -28.613281 21.828125 -29.265625 19.765625 -29.265625 Z M 21.140625 0.640625 C 15.421875 0.640625 10.953125 -0.9375 7.734375 -4.09375 C 4.523438 -7.25 2.921875 -11.710938 2.921875 -17.484375 C 2.921875 -23.429688 4.40625 -28.03125 7.375 -31.28125 C 10.351562 -34.53125 14.460938 -36.15625 19.703125 -36.15625 C 24.722656 -36.15625 28.628906 -34.722656 31.421875 -31.859375 C 34.210938 -29.003906 35.609375 -25.0625 35.609375 -20.03125 L 35.609375 -15.328125 L 12.734375 -15.328125 C 12.835938 -12.578125 13.648438 -10.425781 15.171875 -8.875 C 16.691406 -7.332031 18.828125 -6.5625 21.578125 -6.5625 C 23.710938 -6.5625 25.734375 -6.785156 27.640625 -7.234375 C 29.546875 -7.679688 31.535156 -8.390625 33.609375 -9.359375 L 33.609375 -1.875 C 31.921875 -1.03125 30.113281 -0.398438 28.1875 0.015625 C 26.257812 0.429688 23.910156 0.640625 21.140625 0.640625 Z M 21.140625 0.640625 "/></g></g></g><g fill="#3067cf" fill-opacity="1"><g transform="translate(706.564949, 132.565187)"><g><path d="M 37.828125 0 L 28.15625 0 L 28.15625 -20.71875 C 28.15625 -23.28125 27.695312 -25.203125 26.78125 -26.484375 C 25.875 -27.765625 24.425781 -28.40625 22.4375 -28.40625 C 19.726562 -28.40625 17.769531 -27.5 16.5625 -25.6875 C 15.363281 -23.882812 14.765625 -20.882812 14.765625 -16.6875 L 14.765625 0 L 5.078125 0 L 5.078125 -35.484375 L 12.46875 -35.484375 L 13.78125 -30.9375 L 14.3125 -30.9375 C 15.394531 -32.65625 16.878906 -33.953125 18.765625 -34.828125 C 20.660156 -35.710938 22.816406 -36.15625 25.234375 -36.15625 C 29.359375 -36.15625 32.488281 -35.035156 34.625 -32.796875 C 36.757812 -30.566406 37.828125 -27.347656 37.828125 -23.140625 Z M 37.828125 0 "/></g></g></g><g fill="#3067cf" fill-opacity="1"><g transform="translate(749.279516, 132.565187)"><g/></g></g><g fill="#3067cf" fill-opacity="1"><g transform="translate(766.162251, 132.565187)"><g><path d="M 19.484375 0.640625 C 8.441406 0.640625 2.921875 -5.421875 2.921875 -17.546875 C 2.921875 -23.578125 4.421875 -28.1875 7.421875 -31.375 C 10.429688 -34.5625 14.738281 -36.15625 20.34375 -36.15625 C 24.445312 -36.15625 28.128906 -35.347656 31.390625 -33.734375 L 28.53125 -26.25 C 27.007812 -26.863281 25.59375 -27.363281 24.28125 -27.75 C 22.96875 -28.144531 21.65625 -28.34375 20.34375 -28.34375 C 15.3125 -28.34375 12.796875 -24.765625 12.796875 -17.609375 C 12.796875 -10.671875 15.3125 -7.203125 20.34375 -7.203125 C 22.207031 -7.203125 23.929688 -7.453125 25.515625 -7.953125 C 27.097656 -8.453125 28.6875 -9.226562 30.28125 -10.28125 L 30.28125 -2 C 28.71875 -1.007812 27.132812 -0.320312 25.53125 0.0625 C 23.9375 0.445312 21.921875 0.640625 19.484375 0.640625 Z M 19.484375 0.640625 "/></g></g></g><g fill="#3067cf" fill-opacity="1"><g transform="translate(799.578631, 132.565187)"><g><path d="M 4.671875 -44.65625 C 4.671875 -47.8125 6.425781 -49.390625 9.9375 -49.390625 C 13.445312 -49.390625 15.203125 -47.8125 15.203125 -44.65625 C 15.203125 -43.15625 14.757812 -41.984375 13.875 -41.140625 C 13 -40.304688 11.6875 -39.890625 9.9375 -39.890625 C 6.425781 -39.890625 4.671875 -41.476562 4.671875 -44.65625 Z M 14.765625 0 L 5.078125 0 L 5.078125 -35.484375 L 14.765625 -35.484375 Z M 14.765625 0 "/></g></g></g><g fill="#3067cf" fill-opacity="1"><g transform="translate(819.41266, 132.565187)"><g><path d="M 30.21875 0 L 28.90625 -4.53125 L 28.40625 -4.53125 C 27.363281 -2.882812 25.890625 -1.609375 23.984375 -0.703125 C 22.085938 0.191406 19.921875 0.640625 17.484375 0.640625 C 13.316406 0.640625 10.175781 -0.472656 8.0625 -2.703125 C 5.945312 -4.941406 4.890625 -8.15625 4.890625 -12.34375 L 4.890625 -35.484375 L 14.5625 -35.484375 L 14.5625 -14.765625 C 14.5625 -12.203125 15.015625 -10.28125 15.921875 -9 C 16.835938 -7.71875 18.289062 -7.078125 20.28125 -7.078125 C 22.988281 -7.078125 24.945312 -7.976562 26.15625 -9.78125 C 27.363281 -11.59375 27.96875 -14.597656 27.96875 -18.796875 L 27.96875 -35.484375 L 37.640625 -35.484375 L 37.640625 0 Z M 30.21875 0 "/></g></g></g><g fill="#3067cf" fill-opacity="1"><g transform="translate(862.127272, 132.565187)"><g><path d="M 16.3125 0.640625 C 12.144531 0.640625 8.867188 -0.976562 6.484375 -4.21875 C 4.109375 -7.457031 2.921875 -11.941406 2.921875 -17.671875 C 2.921875 -23.492188 4.128906 -28.03125 6.546875 -31.28125 C 8.972656 -34.53125 12.3125 -36.15625 16.5625 -36.15625 C 21.03125 -36.15625 24.4375 -34.414062 26.78125 -30.9375 L 27.109375 -30.9375 C 26.617188 -33.582031 26.375 -35.941406 26.375 -38.015625 L 26.375 -49.390625 L 36.09375 -49.390625 L 36.09375 0 L 28.65625 0 L 26.78125 -4.609375 L 26.375 -4.609375 C 24.175781 -1.109375 20.820312 0.640625 16.3125 0.640625 Z M 19.703125 -7.078125 C 22.179688 -7.078125 23.992188 -7.796875 25.140625 -9.234375 C 26.296875 -10.671875 26.929688 -13.113281 27.046875 -16.5625 L 27.046875 -17.609375 C 27.046875 -21.421875 26.457031 -24.148438 25.28125 -25.796875 C 24.101562 -27.453125 22.191406 -28.28125 19.546875 -28.28125 C 17.390625 -28.28125 15.710938 -27.363281 14.515625 -25.53125 C 13.328125 -23.695312 12.734375 -21.035156 12.734375 -17.546875 C 12.734375 -14.054688 13.332031 -11.4375 14.53125 -9.6875 C 15.738281 -7.945312 17.460938 -7.078125 19.703125 -7.078125 Z M 19.703125 -7.078125 "/></g></g></g><g fill="#3067cf" fill-opacity="1"><g transform="translate(903.255184, 132.565187)"><g><path d="M 27.609375 0 L 25.734375 -4.828125 L 25.484375 -4.828125 C 23.859375 -2.773438 22.179688 -1.347656 20.453125 -0.546875 C 18.734375 0.242188 16.488281 0.640625 13.71875 0.640625 C 10.300781 0.640625 7.613281 -0.332031 5.65625 -2.28125 C 3.707031 -4.226562 2.734375 -7 2.734375 -10.59375 C 2.734375 -14.363281 4.046875 -17.140625 6.671875 -18.921875 C 9.304688 -20.710938 13.28125 -21.707031 18.59375 -21.90625 L 24.75 -22.09375 L 24.75 -23.640625 C 24.75 -27.242188 22.910156 -29.046875 19.234375 -29.046875 C 16.398438 -29.046875 13.066406 -28.1875 9.234375 -26.46875 L 6.03125 -33.015625 C 10.113281 -35.148438 14.640625 -36.21875 19.609375 -36.21875 C 24.367188 -36.21875 28.019531 -35.179688 30.5625 -33.109375 C 33.101562 -31.035156 34.375 -27.878906 34.375 -23.640625 L 34.375 0 Z M 24.75 -16.4375 L 21.015625 -16.3125 C 18.203125 -16.226562 16.101562 -15.71875 14.71875 -14.78125 C 13.34375 -13.851562 12.65625 -12.4375 12.65625 -10.53125 C 12.65625 -7.800781 14.222656 -6.4375 17.359375 -6.4375 C 19.597656 -6.4375 21.390625 -7.082031 22.734375 -8.375 C 24.078125 -9.664062 24.75 -11.378906 24.75 -13.515625 Z M 24.75 -16.4375 "/></g></g></g><g fill="#3067cf" fill-opacity="1"><g transform="translate(942.510705, 132.565187)"><g><path d="M 16.3125 0.640625 C 12.144531 0.640625 8.867188 -0.976562 6.484375 -4.21875 C 4.109375 -7.457031 2.921875 -11.941406 2.921875 -17.671875 C 2.921875 -23.492188 4.128906 -28.03125 6.546875 -31.28125 C 8.972656 -34.53125 12.3125 -36.15625 16.5625 -36.15625 C 21.03125 -36.15625 24.4375 -34.414062 26.78125 -30.9375 L 27.109375 -30.9375 C 26.617188 -33.582031 26.375 -35.941406 26.375 -38.015625 L 26.375 -49.390625 L 36.09375 -49.390625 L 36.09375 0 L 28.65625 0 L 26.78125 -4.609375 L 26.375 -4.609375 C 24.175781 -1.109375 20.820312 0.640625 16.3125 0.640625 Z M 19.703125 -7.078125 C 22.179688 -7.078125 23.992188 -7.796875 25.140625 -9.234375 C 26.296875 -10.671875 26.929688 -13.113281 27.046875 -16.5625 L 27.046875 -17.609375 C 27.046875 -21.421875 26.457031 -24.148438 25.28125 -25.796875 C 24.101562 -27.453125 22.191406 -28.28125 19.546875 -28.28125 C 17.390625 -28.28125 15.710938 -27.363281 14.515625 -25.53125 C 13.328125 -23.695312 12.734375 -21.035156 12.734375 -17.546875 C 12.734375 -14.054688 13.332031 -11.4375 14.53125 -9.6875 C 15.738281 -7.945312 17.460938 -7.078125 19.703125 -7.078125 Z M 19.703125 -7.078125 "/></g></g></g><g fill="#3067cf" fill-opacity="1"><g transform="translate(983.638571, 132.565187)"><g><path d="M 27.609375 0 L 25.734375 -4.828125 L 25.484375 -4.828125 C 23.859375 -2.773438 22.179688 -1.347656 20.453125 -0.546875 C 18.734375 0.242188 16.488281 0.640625 13.71875 0.640625 C 10.300781 0.640625 7.613281 -0.332031 5.65625 -2.28125 C 3.707031 -4.226562 2.734375 -7 2.734375 -10.59375 C 2.734375 -14.363281 4.046875 -17.140625 6.671875 -18.921875 C 9.304688 -20.710938 13.28125 -21.707031 18.59375 -21.90625 L 24.75 -22.09375 L 24.75 -23.640625 C 24.75 -27.242188 22.910156 -29.046875 19.234375 -29.046875 C 16.398438 -29.046875 13.066406 -28.1875 9.234375 -26.46875 L 6.03125 -33.015625 C 10.113281 -35.148438 14.640625 -36.21875 19.609375 -36.21875 C 24.367188 -36.21875 28.019531 -35.179688 30.5625 -33.109375 C 33.101562 -31.035156 34.375 -27.878906 34.375 -23.640625 L 34.375 0 Z M 24.75 -16.4375 L 21.015625 -16.3125 C 18.203125 -16.226562 16.101562 -15.71875 14.71875 -14.78125 C 13.34375 -13.851562 12.65625 -12.4375 12.65625 -10.53125 C 12.65625 -7.800781 14.222656 -6.4375 17.359375 -6.4375 C 19.597656 -6.4375 21.390625 -7.082031 22.734375 -8.375 C 24.078125 -9.664062 24.75 -11.378906 24.75 -13.515625 Z M 24.75 -16.4375 "/></g></g></g><g fill="#3067cf" fill-opacity="1"><g transform="translate(1022.894092, 132.565187)"><g><path d="M 37.828125 0 L 28.15625 0 L 28.15625 -20.71875 C 28.15625 -23.28125 27.695312 -25.203125 26.78125 -26.484375 C 25.875 -27.765625 24.425781 -28.40625 22.4375 -28.40625 C 19.726562 -28.40625 17.769531 -27.5 16.5625 -25.6875 C 15.363281 -23.882812 14.765625 -20.882812 14.765625 -16.6875 L 14.765625 0 L 5.078125 0 L 5.078125 -35.484375 L 12.46875 -35.484375 L 13.78125 -30.9375 L 14.3125 -30.9375 C 15.394531 -32.65625 16.878906 -33.953125 18.765625 -34.828125 C 20.660156 -35.710938 22.816406 -36.15625 25.234375 -36.15625 C 29.359375 -36.15625 32.488281 -35.035156 34.625 -32.796875 C 36.757812 -30.566406 37.828125 -27.347656 37.828125 -23.140625 Z M 37.828125 0 "/></g></g></g><g fill="#3067cf" fill-opacity="1"><g transform="translate(1065.608658, 132.565187)"><g><path d="M 14.765625 0 L 5.078125 0 L 5.078125 -35.484375 L 14.765625 -35.484375 Z M 4.59375 -39.390625 L 4.59375 -40.25 C 8.238281 -44.476562 10.726562 -47.660156 12.0625 -49.796875 L 22.90625 -49.796875 L 22.90625 -49.125 C 21.8125 -48.03125 19.9375 -46.394531 17.28125 -44.21875 C 14.625 -42.050781 12.546875 -40.441406 11.046875 -39.390625 Z M 4.59375 -39.390625 "/></g></g></g><g fill="#3067cf" fill-opacity="1"><g transform="translate(1085.442733, 132.565187)"><g><path d="M 27.609375 0 L 25.734375 -4.828125 L 25.484375 -4.828125 C 23.859375 -2.773438 22.179688 -1.347656 20.453125 -0.546875 C 18.734375 0.242188 16.488281 0.640625 13.71875 0.640625 C 10.300781 0.640625 7.613281 -0.332031 5.65625 -2.28125 C 3.707031 -4.226562 2.734375 -7 2.734375 -10.59375 C 2.734375 -14.363281 4.046875 -17.140625 6.671875 -18.921875 C 9.304688 -20.710938 13.28125 -21.707031 18.59375 -21.90625 L 24.75 -22.09375 L 24.75 -23.640625 C 24.75 -27.242188 22.910156 -29.046875 19.234375 -29.046875 C 16.398438 -29.046875 13.066406 -28.1875 9.234375 -26.46875 L 6.03125 -33.015625 C 10.113281 -35.148438 14.640625 -36.21875 19.609375 -36.21875 C 24.367188 -36.21875 28.019531 -35.179688 30.5625 -33.109375 C 33.101562 -31.035156 34.375 -27.878906 34.375 -23.640625 L 34.375 0 Z M 24.75 -16.4375 L 21.015625 -16.3125 C 18.203125 -16.226562 16.101562 -15.71875 14.71875 -14.78125 C 13.34375 -13.851562 12.65625 -12.4375 12.65625 -10.53125 C 12.65625 -7.800781 14.222656 -6.4375 17.359375 -6.4375 C 19.597656 -6.4375 21.390625 -7.082031 22.734375 -8.375 C 24.078125 -9.664062 24.75 -11.378906 24.75 -13.515625 Z M 24.75 -16.4375 "/></g></g></g><g fill="#4930cf" fill-opacity="1"><g transform="translate(37.715665, 156.001955)"><g><path d="M 29.140625 -0.734375 C 29.140625 3.429688 30.332031 6.457031 32.71875 8.34375 C 35.113281 10.226562 38.625 11.207031 43.25 11.28125 L 43.25 19.875 C 35.476562 19.789062 29.460938 18.007812 25.203125 14.53125 C 20.953125 11.0625 18.828125 6.175781 18.828125 -0.125 L 18.828125 -18.71875 C 18.828125 -22.96875 17.539062 -26 14.96875 -27.8125 C 12.394531 -29.632812 8.65625 -30.546875 3.75 -30.546875 L 3.75 -39.203125 C 9.0625 -39.285156 12.898438 -40.265625 15.265625 -42.140625 C 17.640625 -44.023438 18.828125 -46.929688 18.828125 -50.859375 L 18.828125 -69.625 C 18.828125 -75.96875 21.035156 -80.894531 25.453125 -84.40625 C 29.867188 -87.925781 35.800781 -89.6875 43.25 -89.6875 L 43.25 -81.15625 C 33.84375 -80.914062 29.140625 -76.847656 29.140625 -68.953125 L 29.140625 -50.859375 C 29.140625 -42.066406 24.578125 -36.875 15.453125 -35.28125 L 15.453125 -34.53125 C 24.578125 -32.9375 29.140625 -27.742188 29.140625 -18.953125 Z M 29.140625 -0.734375 "/></g></g></g><path stroke-linecap="round" transform="matrix(0.75, 0, 0, 0.75, 121.448084, 151.484316)" fill="none" stroke-linejoin="miter" d="M 8.501514 8.500079 L 1327.142223 8.500079 " stroke="#cf9830" stroke-width="17" stroke-opacity="1" stroke-miterlimit="4"/></svg>